General
Complete name                    : V for Vendetta.mkv
Format                           : Matroska
File size                        : 999 MiB
Duration                         : 2h 7mn
Overall bit rate                 : 1 099 Kbps


Video
ID                               : 1
Format                           : AVC
Duration                         : 2h 7mn
Bit rate                         : 694 Kbps
Width                            : 692 pixels
Height                           : 428 pixels
Display aspect ratio             : 2.25:1
Frame rate                       : 25.000 fps
Resolution                       : 8 bits
Colorimetry                      : 4:2:0
Scan type                        : Progressive
Bits/(Pixel*Frame)               : 0.094
Stream size                      : 630 MiB (63%)
Writing library                  : x264 core 79


Audio
ID                               : 2
Format                           : AC-3
Format/Info                      : Audio Coding 3
Codec ID                         : A_AC3
Duration                         : 2h 7mn
Bit rate mode                    : Constant
Bit rate                         : 384 Kbps
Channel(s)                       : 6 channels
Channel positions                : Front: L C R, Surround: L R, LFE
Sampling rate                    : 48.0 KHz
Stream size                      : 349 MiB (35%)
Language                         : English

Text #1
Language                         : English

Text #2
Language                         : Danish

Text #3
Language                         : Finnish

Text #4
Language                         : Italian

Text #5
Language                         : Norwegian

Text #6
Language                         : Swedish

